<?xml version="1.0" encoding="utf-8"?>
<!-- Generator: Adobe Illustrator 16.0.0, SVG Export Plug-In . SVG Version: 6.00 Build 0)  -->
<!DOCTYPE svg PUBLIC "-//W3C//DTD SVG 1.1//EN" "http://www.w3.org/Graphics/SVG/1.1/DTD/svg11.dtd">
<svg version="1.1" xmlns="http://www.w3.org/2000/svg" xmlns:xlink="http://www.w3.org/1999/xlink" x="0px" y="0px"
	 width="804.667px" height="197.333px" viewBox="0 0 804.667 197.333" enable-background="new 0 0 804.667 197.333"
	 xml:space="preserve">
<g id="Layer_1">
	<g>
		<g>
			<path d="M95.232,121.129c0-12.067-4.122-22.151-12.352-30.247c-2.984-2.985-6.896-5.927-11.719-8.841
				c-4.831-2.907-10.583-5.857-17.254-8.841c-10.652-4.824-17.751-8.658-21.305-11.501c-6.249-5.397-9.374-11.716-9.374-18.959
				c0-8.097,2.984-14.626,8.953-19.599c5.534-4.684,12.492-7.029,20.87-7.029c7.956,0,14.416,1.566,19.389,4.683
				c3.974,2.275,7.379,5.754,10.224,10.442l8.307-3.624C83.583,14.265,70.95,7.59,53.051,7.59c-10.793,0-19.879,3.268-27.267,9.799
				C18.257,23.78,14.5,32.231,14.5,42.739c0,10.511,3.687,18.959,11.074,25.349c4.402,3.975,12.639,8.666,24.709,14.059
				c6.39,2.844,11.643,5.399,15.765,7.667c4.115,2.276,7.169,4.333,9.156,6.181c7.528,6.677,11.292,15.055,11.292,25.135
				c0,10.652-3.195,18.745-9.585,24.285c-6.249,5.4-14.837,8.097-25.778,8.097c-19.169,0-31.241-9.086-36.211-27.268l-8.729,2.979
				c6.671,22.017,21.649,33.021,44.94,33.021c7.528,0,14.066-0.993,19.599-2.98C87.066,153.157,95.232,140.443,95.232,121.129z"/>
			<path d="M191.834,162.668c23.011,0,41.823-7.31,56.45-21.94c14.626-14.483,21.944-33.231,21.944-56.235
				c0-23.007-7.317-41.823-21.944-56.45c-14.767-14.486-33.587-21.729-56.45-21.729c-23.004,0-41.824,7.313-56.45,21.94
				c-14.486,14.487-21.726,33.232-21.726,56.24c0,23.004,7.31,41.823,21.944,56.45C150.082,155.429,168.83,162.668,191.834,162.668z
				 M141.993,34.433c13.06-13.065,29.675-19.599,49.841-19.599c20.448,0,37.209,6.533,50.278,19.599
				c12.919,12.923,19.38,29.607,19.38,50.06c0,20.592-6.461,37.35-19.38,50.27c-13.069,12.78-29.83,19.17-50.278,19.17
				c-20.308,0-36.992-6.53-50.061-19.594c-12.92-12.924-19.38-29.538-19.38-49.846C122.394,64.184,128.924,47.5,141.993,34.433z"/>
			<path d="M304.419,8.443h-8.525v119.753c2.872-1.716,5.712-3.444,8.525-5.175V8.443z"/>
			<path d="M547.493,30.408L527.853,7.376v25.647C530.683,32.599,543.848,30.83,547.493,30.408z"/>
			<path d="M650.126,8.443h-8.735v18.672c2.892,0.133,5.821,0.336,8.735,0.509V8.443z"/>
			<path d="M439.551,25.696l9.67,24.97c2.559-0.779,5.107-1.565,7.717-2.317L439.551,3.542l-22.474,58.121
				c3.275-1.25,6.604-2.479,9.981-3.68L439.551,25.696z"/>
			<path d="M737.508,25.696l5.787,14.939c3.146,0.699,6.292,1.412,9.451,2.167l-15.238-39.26l-12.856,33.256
				c2.647,0.496,5.302,1.047,7.948,1.58L737.508,25.696z"/>
		</g>
		<g>
			<path d="M354.422,160.54v-8.735h-41.97c-4.866,2.929-9.845,5.849-14.922,8.735H354.422z"/>
			<path d="M641.392,140.514l-71.253-83.548c-3.651,0.288-7.261,0.632-10.862,0.99l90.85,105.141V56.358
				c-2.914-0.186-5.835-0.382-8.735-0.52V140.514z"/>
			<path d="M527.853,160.54h8.518V60.708c-2.847,0.407-5.709,0.8-8.518,1.243V160.54z"/>
			<path d="M378.845,160.54h8.518l25.664-66.308c-3.51,1.495-6.95,3.012-10.308,4.557L378.845,160.54z"/>
			<path d="M491.745,160.54h8.729l-33.116-85.345c-2.618,0.745-5.196,1.509-7.766,2.286L491.745,160.54z"/>
			<path d="M755.914,73.236l33.79,87.304h8.729l-32.898-84.783C762.317,74.865,759.116,74.064,755.914,73.236z"/>
			<path d="M676.804,160.54h8.516l36.754-94.958c-2.661-0.516-5.324-1.024-7.97-1.5L676.804,160.54z"/>
		</g>
	</g>
	<g>
		<g>
			<path d="M798.474,67.028C621.723,8.493,456.171,46.123,367.593,96.605c-10.825,6.168-22.292,13.439-34.433,21.136
				c-66.07,41.886-156.557,99.249-273.469,53.542l-2.62,6.7c31.579,12.345,61.222,17.418,88.987,17.418
				c2.44,0,4.866-0.04,7.274-0.116c67.475-2.148,123.637-33.829,169.344-62.426c1.636-1.019,3.25-2.037,4.858-3.047
				c3.21-2.027,6.369-4.032,9.473-5.998c12.071-7.651,23.468-14.88,34.145-20.961c87.161-49.681,250.072-86.718,424.309-29.268
				l0.661,0.253l2.318-6.812"/>
		</g>
	</g>
</g>
<g id="nyt_x5F_exporter_x5F_info" display="none">
</g>
</svg>
